# xmcd
#
# Track frame offsets:
#	150
#	33425
#	51080
#	73821
#	90353
#	111263
#	131068
#	146505
#	162027
#	184567
#	204785
#	227462
#	247120
#	274870
#
# Disc length: 3883 seconds
#
# Revision: 1
# Processed by: cddbd v1.5.2PL0 Copyright (c) Steve Scherf et al.
# Submitted via: audiograbber 1.83.01
#
DISCID=bd0f290e
DTITLE=Jan Hirte feat. Nayeli - Singing the Blues
DYEAR=2011
DGENRE=Blues
TTITLE0=Boom Bello
TTITLE1=Hold On, I'm Coming
TTITLE2=Jealous Girl
TTITLE3=She Moves Me
TTITLE4=I Always Will
TTITLE5=Hold It Right There
TTITLE6=Baby I Love You
TTITLE7=All I Could Do Was Cry
TTITLE8=Chain Of Fools
TTITLE9=Mr. Nice Guy
TTITLE10=Barefootin' In The Sand
TTITLE11=I Just Want To Make Love To You
TTITLE12=I'd Rather  Go Blind
TTITLE13=My Babe
EXTD=
EXTT0=
EXTT1=
EXTT2=
EXTT3=
EXTT4=
EXTT5=
EXTT6=
EXTT7=
EXTT8=
EXTT9=
EXTT10=
EXTT11=
EXTT12=
EXTT13=
PLAYORDER=
